<svg xmlns="http://www.w3.org/2000/svg" id="Layer_1" data-name="Layer 1" viewBox="0 0 1139.62 964.53"><defs><style>.cls-1{fill:#00aae5}.cls-2{fill:#fff}.cls-3{fill:none;stroke:#000;stroke-miterlimit:10}.cls-4{fill:#ffc100}.cls-5{fill:#f9ea8e}.cls-6{fill:#e6e7e9}.cls-7{fill:#2f4f59}.cls-8{fill:#0078c4}.cls-9{fill:#d2d3d5}.cls-10{fill:#e3f4fa}</style></defs><title>rocket</title><path d="M590.15,431.62,440.62,533.27s-42.63-57.68-122.88-10c0,0-30.1-92.79-165.52-92.79,0,0,53.42-207.93-152.22-215.45H0v808l88,2H495l235-1s-69.94-95.74-185.3-55.61c0,0,37.62-122.89-112.85-178.06,0,0,7.52,0,17.55-62.7l211.92-201.7" class="cls-1" transform="translate(19.4 -60.47)"/><path d="M0,1023c2.16-2.82,352.16,3.77,354,1,53.82-81-9.93-110.79-9.93-110.79,107.84-82.76,27.59-158,27.59-158L573.24,571.28,522.5,512,341.56,647.38S286.39,524.5,166,619.79c0,0-25.08-37.61-107.83-32.6,0,0,69.72-102.63-58.18-120.19" class="cls-2" transform="translate(19.4 -60.47)"/><path d="M993.93,66" class="cls-3" transform="translate(19.4 -60.47)"/><path d="M673.9,396S552.22,399.1,489.53,587.19c0,0,196.7-10.26,221.23-144.32S673.9,396,673.9,396Z" class="cls-4" transform="translate(19.4 -60.47)"/><path d="M677,401.54S617.43,414.15,582.32,512c0,0,97.8-5,127.9-70.22S677,401.54,677,401.54Z" class="cls-5" transform="translate(19.4 -60.47)"/><path d="M661.32,362.74S779.18,184.68,851.91,137s125.4-92.79,265.84-70.22c0,0,20.06,117.87-100.32,238.25s-278.37,158-278.37,158S678.87,433,661.32,362.74Z" class="cls-6" transform="translate(19.4 -60.47)"/><path d="M766.38,221.24s-93.78,4.82-111.33,22.38S557.24,364,557.24,364l120.9-25.91Z" class="cls-7" transform="translate(19.4 -60.47)"/><line x1="28.4" x2="19.4" y1="154.53" y2="418.26" class="cls-8"/><path d="M-96,423" class="cls-2" transform="translate(19.4 -60.47)"/><path d="M213,851" class="cls-2" transform="translate(19.4 -60.47)"/><path d="M739,463s381-83,380-397L692.23,419.68S715,455,739,463Z" class="cls-9" transform="translate(19.4 -60.47)"/><path d="M769.24,453l-52,108.75s135.31-54.59,151.29-76.51,36.23-87.6,36.23-87.6S811.93,446.81,769.24,453Z" class="cls-7" transform="translate(19.4 -60.47)"/><ellipse cx="960.62" cy="153.79" class="cls-7" rx="50.78" ry="49.74"/><ellipse cx="961.54" cy="153.91" class="cls-10" rx="40.3" ry="39.47"/><path d="M781.86,348S749,335.24,637.49,466.82C637.49,466.82,765.41,401,781.86,348Z" class="cls-7" transform="translate(19.4 -60.47)"/><path d="M993.93,66s4.31,93.36,102.31,125.47c0,0,35.3-85.76,20.25-125.88C1116.49,65.56,1051.93,53.84,993.93,66Z" class="cls-7" transform="translate(19.4 -60.47)"/></svg>